HIERARCHY
ROOT Hips
{
	OFFSET 0.00000 0.00000 0.00000
	CHANNELS 6 Xposition Yposition Zposition Zrotation Yrotation Xrotation 
	JOINT LHipJoint
	{
		OFFSET 0 0 0
		CHANNELS 3 Zrotation Yrotation Xrotation
		JOINT LeftHip
		{
			OFFSET 1.57338 -1.94743 0.52196
			CHANNELS 3 Zrotation Yrotation Xrotation
			JOINT LeftKnee
			{
				OFFSET 2.60333 -7.15259 0.00000
				CHANNELS 3 Zrotation Yrotation Xrotation
				JOINT LeftAnkle
				{
					OFFSET 2.77855 -7.63400 0.00000
					CHANNELS 3 Zrotation Yrotation Xrotation
					JOINT LeftToe
					{
						OFFSET 0.19847 -0.54529 2.28466
						CHANNELS 3 Zrotation Yrotation Xrotation
						End Site
						{
							OFFSET 0.00000 -0.00000 1.17993
						}
					}
				}
			}
		}
	}
	JOINT RHipJoint
	{
		OFFSET 0 0 0
		CHANNELS 3 Zrotation Yrotation Xrotation
		JOINT RightHip
		{
			OFFSET -1.61527 -1.94743 0.52196
			CHANNELS 3 Zrotation Yrotation Xrotation
			JOINT RightKnee
			{
				OFFSET -2.53829 -6.97390 0.00000
				CHANNELS 3 Zrotation Yrotation Xrotation
				JOINT RightAnkle
				{
					OFFSET -2.80762 -7.71387 0.00000
					CHANNELS 3 Zrotation Yrotation Xrotation
					JOINT RightToe
					{
						OFFSET -0.30536 -0.83898 2.28801
						CHANNELS 3 Zrotation Yrotation Xrotation
						End Site
						{
							OFFSET -0.00000 -0.00000 1.21323
						}
					}
				}
			}
		}
	}
	JOINT lowerback
	{
		OFFSET 0 0 0
		CHANNELS 3 Zrotation Yrotation Xrotation
		JOINT Chest
		{
			OFFSET -0.04381 1.99497 -0.19778
			CHANNELS 3 Zrotation Yrotation Xrotation
			JOINT Chest2
			{
				OFFSET -0.01959 2.01295 -0.04372
				CHANNELS 3 Zrotation Yrotation Xrotation
				JOINT lowerneck
				{
					OFFSET 0 0 0
					CHANNELS 3 Zrotation Yrotation Xrotation
					JOINT Neck
					{
						OFFSET -0.05459 1.76913 0.09708
						CHANNELS 3 Zrotation Yrotation Xrotation
						JOINT Head
						{
							OFFSET 0.09461 1.77368 -0.11172
							CHANNELS 3 Zrotation Yrotation Xrotation
							End Site
							{
								OFFSET 0.03812 1.78157 -0.04834
							}
						}
					}
				}
				JOINT LeftCollar
				{
					OFFSET 0 0 0
					CHANNELS 3 Zrotation Yrotation Xrotation
					JOINT LeftShoulder
					{
						OFFSET 3.50922 1.24034 -0.28866
CHANNELS 3 Zrotation Xrotation Yrotation
						JOINT LeftElbow
						{
OFFSET 0 -5.401880 0.000000
CHANNELS 3 Zrotation Xrotation Yrotation
							JOINT LeftWrist
							{
OFFSET 0 -3.685590 0.000000
CHANNELS 3 Zrotation Xrotation Yrotation
								JOINT lhand
								{
									OFFSET 0 0 0
CHANNELS 3 Zrotation Xrotation Yrotation
									JOINT LFingers
									{
OFFSET 0 -0.617530 0.000000
CHANNELS 3 Zrotation Xrotation Yrotation
										End Site
										{
OFFSET 0 -0.497870 0.000000
										}
									}
								}
								JOINT LThumb
								{
OFFSET 0 0.000000 0.000000
CHANNELS 3 Zrotation Xrotation Yrotation
									End Site
									{
OFFSET 0 -0.505470 0.505470
									}
								}
							}
						}
					}
				}
				JOINT RightCollar
				{
					OFFSET 0 0 0
					CHANNELS 3 Zrotation Yrotation Xrotation
					JOINT RightShoulder
					{
						OFFSET -2.95373 1.39649 -0.27346
CHANNELS 3 Zrotation Xrotation Yrotation
						JOINT RightElbow
						{
OFFSET 0 -6.106700 -0.000000
CHANNELS 3 Zrotation Xrotation Yrotation
							JOINT RightWrist
							{
OFFSET 0 -3.630520 0.000000
CHANNELS 3 Zrotation Xrotation Yrotation
								JOINT rhand
								{
									OFFSET 0 0 0
CHANNELS 3 Zrotation Xrotation Yrotation
									JOINT RFingers
									{
OFFSET 0 -0.583850 0.000000
CHANNELS 3 Zrotation Xrotation Yrotation
										End Site
										{
OFFSET 0 -0.470710 0.000000
										}
									}
								}
								JOINT RThumb
								{
OFFSET 0 0.000000 0.000000
CHANNELS 3 Zrotation Xrotation Yrotation
									End Site
									{
OFFSET 0 -0.477900 0.477900
									}
								}
							}
						}
					}
				}
			}
		}
	}
}
MOTION
Frames: 12
Frame Time: 0.008333333333333333
0.756690 15.660959 -6.752023 0.385232 4.951171 -20.206612 0.000000 0.000000 0.000000 -6.684735 2.464826 -31.784979 11.434668 18.141354 64.185306 0.099776 -8.071504 -7.525383 0.005330 0.470089 1.291802 0.000000 0.000000 0.000000 10.134613 -20.559786 -81.612190 -36.702615 -11.161617 147.173235 -0.187161 -6.041981 -12.548696 -1.121187 -6.726214 18.906786 -3.908425 -0.358026 25.758745 -2.406887 -1.264131 14.613485 -0.101582 -0.758401 2.002452 -16.021480 -11.043771 -3.390200 18.336106 -14.172098 -4.987089 7.544177 -6.977632 1.646212 0.000000 0.000000 0.000000 36.462079 -1.394360 -76.791912 66.844114 -57.873733 40.089551 58.725352 19.797812 -17.248092 0.000000 0.000000 0.000000 -7.125000 0.000000 0.000000 36.190391 56.933844 -11.618398 0.000000 0.000000 0.000000 -25.690840 -1.668100 70.153196 -99.855006 -59.629828 -68.524132 -67.903564 -18.908952 -14.152466 0.000000 0.000000 0.000000 7.125000 0.000000 0.000000 -24.507034 -1.367144 -27.734290
0.762205 15.656139 -6.756061 0.634197 5.002125 -20.208920 0.000000 0.000000 0.000000 -7.006141 2.496517 -31.767495 11.425384 18.137077 64.155512 0.107555 -7.939837 -7.590819 0.003564 0.385737 1.059943 0.000000 0.000000 0.000000 9.716008 -20.863308 -81.758439 -36.720052 -11.134966 147.263514 -0.201484 -5.767577 -12.519906 -1.136628 -6.770699 19.037795 -4.203421 -0.327993 25.843066 -2.436398 -1.295871 14.554276 0.042357 -0.790034 1.906918 -16.040304 -10.982592 -3.352471 18.250607 -14.084276 -5.053948 7.534026 -6.935360 1.599303 0.000000 0.000000 0.000000 36.388365 -1.288531 -76.786926 66.755851 -57.856728 40.014867 58.970349 20.836716 -17.792423 0.000000 0.000000 0.000000 -7.125000 0.000000 0.000000 37.107189 57.763500 -12.744054 0.000000 0.000000 0.000000 -25.872517 -1.594611 70.298647 -100.105751 -59.610527 -68.740399 -67.954616 -19.678661 -14.403398 0.000000 0.000000 0.000000 7.125000 0.000000 0.000000 -24.460932 -1.872945 -27.891619
0.767711 15.656408 -6.758658 0.682730 4.962230 -20.320723 0.000000 0.000000 0.000000 -7.065478 2.557423 -31.628022 11.428261 18.138355 64.164785 0.117095 -7.872600 -7.720898 0.000502 0.144472 0.396837 0.000000 0.000000 0.000000 9.522172 -21.116724 -81.562003 -36.717536 -11.138772 147.250626 -0.220157 -5.550356 -12.623684 -1.149985 -6.809055 19.150917 -4.245005 -0.330539 25.920355 -2.468535 -1.314981 14.532883 0.036811 -0.800055 1.847897 -15.951547 -10.841749 -3.195378 18.172138 -13.912478 -5.072561 7.523577 -6.857835 1.526176 0.000000 0.000000 0.000000 36.298956 -1.076288 -76.774946 66.717510 -57.849281 39.982386 58.911119 20.917918 -17.975689 0.000000 0.000000 0.000000 -7.125000 0.000000 0.000000 37.189208 57.989013 -12.986512 0.000000 0.000000 0.000000 -25.778592 -1.534776 70.066268 -99.912272 -59.625476 -68.573489 -68.059554 -20.794812 -15.250737 0.000000 0.000000 0.000000 7.125000 0.000000 0.000000 -24.276122 -3.491147 -28.312113
0.771811 15.657628 -6.762700 0.770351 4.980923 -20.397509 0.000000 0.000000 0.000000 -7.183272 2.567932 -31.499327 11.413133 18.131410 64.116115 0.118728 -7.865663 -7.744299 0.000062 0.043946 0.120767 0.000000 0.000000 0.000000 9.293853 -21.379359 -81.464570 -36.717776 -11.138451 147.251744 -0.226166 -5.482890 -12.660414 -1.141903 -6.785964 19.082746 -4.304946 -0.299162 25.993347 -2.497943 -1.290930 14.550255 0.033741 -0.789857 1.835037 -15.963006 -10.748934 -3.157637 18.302043 -13.808302 -4.919488 7.573947 -6.806616 1.559554 0.000000 0.000000 0.000000 36.317326 -1.179515 -76.853901 66.742714 -57.854124 40.003690 58.923187 20.384362 -17.676766 0.000000 0.000000 0.000000 -7.125000 0.000000 0.000000 36.917079 57.589718 -12.505909 0.000000 0.000000 0.000000 -25.617694 -1.318904 69.680319 -100.054201 -59.614588 -68.695944 -67.974208 -20.618727 -15.385238 0.000000 0.000000 0.000000 7.125000 0.000000 0.000000 -24.194721 -3.646215 -28.261736
0.775579 15.659784 -6.765021 0.715821 4.930686 -20.471346 0.000000 0.000000 0.000000 -7.128011 2.587270 -31.390318 11.410501 18.130173 64.107499 0.122641 -7.813657 -7.785429 0.000023 0.030114 0.082641 0.000000 0.000000 0.000000 9.275609 -21.475223 -81.342677 -36.713142 -11.145510 147.227760 -0.242457 -5.279059 -12.739536 -1.141678 -6.785271 19.080761 -4.232518 -0.322533 26.063095 -2.506838 -1.311183 14.537195 -0.010905 -0.794548 1.785221 -15.912497 -10.749874 -3.347496 18.175033 -13.833762 -4.431553 7.499793 -6.804903 1.720283 0.000000 0.000000 0.000000 36.266609 -1.106836 -76.666917 66.784643 -57.862288 40.039157 58.744958 20.120759 -17.592286 0.000000 0.000000 0.000000 -7.125000 0.000000 0.000000 36.547019 57.410104 -12.192226 0.000000 0.000000 0.000000 -25.527937 -1.237903 69.703499 -100.009427 -59.618007 -68.657272 -68.517618 -21.797634 -15.620293 0.000000 0.000000 0.000000 7.125000 0.000000 0.000000 -24.407895 -4.607917 -28.961134
0.775600 15.664975 -6.764117 0.615071 4.763607 -20.581614 0.000000 0.000000 0.000000 -6.962499 2.640346 -31.249606 11.406382 18.128308 64.094505 0.130442 -7.711279 -7.869608 0.000008 0.007658 0.021021 0.000000 0.000000 0.000000 9.433685 -21.370612 -81.106811 -36.697335 -11.169581 147.146208 -0.253933 -5.230434 -12.882618 -1.128865 -6.748363 18.971923 -4.205450 -0.316381 26.153418 -2.469359 -1.307102 14.485374 0.015838 -0.791752 1.683603 -16.042438 -10.661368 -3.386698 18.203010 -13.727868 -4.198376 7.531009 -6.745793 1.787739 0.000000 0.000000 0.000000 36.147055 -0.892665 -76.547828 66.722127 -57.850159 39.986227 58.816261 20.413660 -17.650915 0.000000 0.000000 0.000000 -7.125000 0.000000 0.000000 36.718513 57.515619 -12.357661 0.000000 0.000000 0.000000 -25.498941 -1.202893 69.750193 -99.909876 -59.625667 -68.571426 -68.199197 -20.701660 -15.229056 0.000000 0.000000 0.000000 7.125000 0.000000 0.000000 -24.352803 -3.594801 -28.469080
0.777856 15.661544 -6.762956 0.611017 4.754585 -20.463382 0.000000 0.000000 0.000000 -6.991605 2.398458 -31.362577 11.431656 18.139928 64.175668 0.149274 -7.461702 -8.073858 0.000000 -0.012926 -0.035549 0.000000 0.000000 0.000000 9.482476 -21.365400 -81.322795 -36.704224 -11.159163 147.181494 -0.240843 -5.332437 -12.762001 -1.164723 -6.851082 19.274973 -4.171002 -0.354323 26.033505 -2.496395 -1.344107 14.451361 -0.025106 -0.807269 1.699150 -15.990956 -10.650704 -3.403071 18.064097 -13.712386 -4.170904 7.479851 -6.737125 1.779584 0.000000 0.000000 0.000000 36.068077 -0.815179 -76.367709 66.734367 -57.852539 39.996616 58.706434 20.552813 -17.714541 0.000000 0.000000 0.000000 -7.125000 0.000000 0.000000 36.601248 57.561596 -12.352582 0.000000 0.000000 0.000000 -25.436621 -1.265579 69.514446 -99.678299 -59.643033 -68.371574 -67.874422 -20.951678 -15.707881 0.000000 0.000000 0.000000 7.125000 0.000000 0.000000 -24.052884 -4.115328 -28.255139
0.776952 15.660295 -6.758982 0.723173 4.712651 -20.521584 0.000000 0.000000 0.000000 -7.108670 2.329986 -31.219092 11.435704 18.141797 64.188734 0.156472 -7.447718 -8.186777 0.000095 0.054490 0.149731 0.000000 0.000000 0.000000 9.310460 -21.532082 -81.231249 -36.711411 -11.148158 147.218807 -0.253990 -5.264179 -12.913516 -1.137635 -6.773602 19.046460 -4.296866 -0.295252 25.904562 -2.565144 -1.286157 14.519890 -0.045359 -0.785640 1.839305 -15.896012 -10.668451 -3.341123 17.995627 -13.730372 -4.332036 7.449934 -6.751778 1.713307 0.000000 0.000000 0.000000 36.090492 -0.909663 -76.270731 66.606872 -57.827763 39.888723 58.545751 20.011779 -17.312680 0.000000 0.000000 0.000000 -7.125000 0.000000 0.000000 35.967466 56.956677 -11.554655 0.000000 0.000000 0.000000 -25.269797 -1.302363 69.350413 -99.466724 -59.658642 -68.189048 -67.911677 -20.348274 -15.399833 0.000000 0.000000 0.000000 7.125000 0.000000 0.000000 -24.157809 -3.612021 -28.199442
0.776863 15.661002 -6.757230 0.573396 4.633916 -20.522110 0.000000 0.000000 0.000000 -6.934898 2.233892 -31.214899 11.449000 18.147849 64.231208 0.166074 -7.276735 -8.276006 0.000567 -0.156159 -0.428985 0.000000 0.000000 0.000000 9.540369 -21.435317 -81.283063 -36.703537 -11.160212 147.177981 -0.261497 -5.284048 -13.050673 -1.097268 -6.656394 18.701378 -4.166338 -0.300710 25.868380 -2.566709 -1.268919 14.425788 -0.123038 -0.766926 1.742696 -16.055204 -10.580863 -3.323717 18.157709 -13.643876 -4.020074 7.526479 -6.704250 1.811480 0.000000 0.000000 0.000000 36.195439 -0.765891 -76.371259 66.753444 -57.856218 40.012775 58.105747 19.589940 -17.277502 0.000000 0.000000 0.000000 -7.125000 0.000000 0.000000 35.245737 56.749441 -11.095724 0.000000 0.000000 0.000000 -25.188410 -1.162638 69.392946 -99.417265 -59.662202 -68.146370 -67.519883 -19.251314 -14.981616 0.000000 0.000000 0.000000 7.125000 0.000000 0.000000 -24.075190 -2.495068 -27.620217
0.778826 15.664594 -6.755136 0.725068 4.654122 -20.652407 0.000000 0.000000 0.000000 -7.130447 2.239398 -30.991508 11.429646 18.139034 64.169291 0.172756 -7.190320 -8.351667 0.000026 -0.029006 -0.079693 0.000000 0.000000 0.000000 9.179093 -21.796805 -81.063212 -36.703504 -11.160237 147.177983 -0.262886 -5.100151 -12.911164 -1.155640 -6.825330 19.198838 -4.332863 -0.241958 25.904728 -2.660722 -1.231545 14.445097 -0.139740 -0.754046 1.751482 -15.682425 -10.623342 -3.140013 17.854808 -13.709774 -4.234222 7.383934 -6.751583 1.677835 0.000000 0.000000 0.000000 36.276197 -0.780556 -76.370775 66.773082 -57.859987 40.029402 58.227447 19.348040 -17.071091 0.000000 0.000000 0.000000 -7.125000 0.000000 0.000000 35.250065 56.510694 -10.885102 0.000000 0.000000 0.000000 -25.101338 -1.155413 69.366221 -99.299180 -59.670751 -68.044470 -67.882697 -20.710951 -15.464895 0.000000 0.000000 0.000000 7.125000 0.000000 0.000000 -24.124802 -3.698389 -28.188164
0.781073 15.666607 -6.751975 0.735635 4.655821 -20.705626 0.000000 0.000000 0.000000 -7.151105 2.278634 -30.896103 11.424568 18.136634 64.152726 0.178378 -7.199685 -8.447789 0.000393 -0.121612 -0.334116 0.000000 0.000000 0.000000 9.103295 -21.988184 -80.958726 -36.701679 -11.162941 147.168570 -0.267632 -4.982954 -12.885899 -1.090730 -6.637191 18.644870 -4.424440 -0.207640 25.828193 -2.616565 -1.203360 14.413958 -0.047033 -0.747749 1.755074 -16.059788 -10.544356 -2.921073 18.078589 -13.646956 -4.020441 7.524491 -6.723648 1.738982 0.000000 0.000000 0.000000 36.170772 -0.653994 -76.403792 66.826956 -57.870428 40.075033 58.085702 19.399046 -17.207590 0.000000 0.000000 0.000000 -7.125000 0.000000 0.000000 35.152550 56.646760 -10.969983 0.000000 0.000000 0.000000 -25.210868 -0.990471 69.372872 -99.267473 -59.672941 -68.017048 -67.628562 -19.533561 -15.101476 0.000000 0.000000 0.000000 7.125000 0.000000 0.000000 -24.096651 -2.811098 -27.782721
0.781694 15.663730 -6.753351 0.577669 4.577309 -20.665302 0.000000 0.000000 0.000000 -6.935222 2.333925 -31.032574 11.445876 18.146498 64.221314 0.171173 -7.226975 -8.340075 0.000000 0.009719 0.026582 0.000000 0.000000 0.000000 9.408711 -21.723904 -81.105145 -36.698703 -11.167546 147.152872 -0.234496 -5.311837 -12.639573 -1.147751 -6.802601 19.131896 -4.342434 -0.194554 25.717688 -2.600782 -1.163410 14.404646 -0.086399 -0.724185 1.792002 -15.982182 -10.527032 -2.772244 18.147350 -13.646804 -4.028540 7.542366 -6.731899 1.713020 0.000000 0.000000 0.000000 36.109368 -0.624811 -76.288386 66.759064 -57.857349 40.017509 57.822065 19.078979 -17.116049 0.000000 0.000000 0.000000 -7.125000 0.000000 0.000000 34.668078 56.427011 -10.600037 0.000000 0.000000 0.000000 -25.145806 -0.948520 69.359002 -99.400653 -59.663446 -68.132012 -67.593577 -20.024336 -15.316150 0.000000 0.000000 0.000000 7.125000 0.000000 0.000000 -24.018256 -3.156193 -27.815977
